# xmcd
#
# Track frame offsets:
#	150
#	13834
#	30454
#	54611
#	75797
#	101478
#	128073
#	149135
#	165745
#	188748
#	211148
#	232366
#	249064
#	268502
#	288377
#	315450
#	334725
#
# Disc length: 4794 seconds
#
# Revision: 2
# Processed by: cddbd v1.5.2PL0 Copyright (c) Steve Scherf et al.
# Submitted via: EZCDAudioConverter 2.4.0.1
#
DISCID=e912b811
DTITLE=Various Artist - Akella Presents - vol.91 - Heavy Blues-Rock   CD1
DYEAR=2016
DGENRE=Blues
TTITLE0=BloYaTop - The Luv Stuff
TTITLE1=Gary Hoey - Wake Up Call
TTITLE2=Black Hole Raven - Lil' Soul Blues
TTITLE3=The Steepwater Band - High and Humble
TTITLE4=The Jondo Trio - Prodigal Blues
TTITLE5=Jimmy D Lane - Rollin' Stone
TTITLE6=Jimi Barbiani Band - La Grange
TTITLE7=Blackfoot - Satisfied Man
TTITLE8=Manu Lanvin - Whippin' Boy
TTITLE9=Dirty Hands - A Fool For Your Stockings
TTITLE10=Royal Southern Brotherhood - Lets Ride
TTITLE11=Guitar Pete - Poppa's Hideaway
TTITLE12=The Quireboys - Gracie B
TTITLE13=100 Watt Vipers - Dirt Road Blues
TTITLE14=Rob Tognoni - Crossword Blues
TTITLE15=Jackyl - Everyone's A Winner
TTITLE16=Satisfied Drive - Blues Song
EXTD=
EXTT0=
EXTT1=
EXTT2=
EXTT3=
EXTT4=
EXTT5=
EXTT6=
EXTT7=
EXTT8=
EXTT9=
EXTT10=
EXTT11=
EXTT12=
EXTT13=
EXTT14=
EXTT15=
EXTT16=
PLAYORDER=
